<svg width="32" height="32" xmlns="http://www.w3.org/2000/svg">

 <g>
  <title>background</title>
  <rect fill="none" id="canvas_background" height="402" width="582" y="-1" x="-1"/>
 </g>
 <g>
  <title>Layer 1</title>
  <path stroke-miterlimit="10" stroke-linejoin="round" stroke-linecap="round" stroke-width="2" stroke="#ffffff" fill="none" id="svg_1" d="m22.6,26c-2.2,1.5 -5,2.3 -8,1.9c-5.5,-0.6 -10,-5.1 -10.6,-10.6c-0.7,-7.2 4.9,-13.3 12,-13.3c0.3,0 0.6,0 0.8,0c7.5,0.5 12.4,8.3 10,15.5l0,0.1c-0.5,1.4 -1.8,2.4 -3.3,2.4l0,0c-1.9,0 -3.5,-1.6 -3.5,-3.5l0,-7.5" class="st0"/>
  <path stroke-miterlimit="10" stroke-linejoin="round" stroke-linecap="round" stroke-width="2" stroke="#ffffff" fill="none" id="svg_2" d="m15.942282,21l0,0c-2.2,0 -4,-1.8 -4,-4l0,-2c0,-2.2 1.8,-4 4,-4l0,0c2.2,0 4,1.8 4,4l0,2c0,2.2 -1.8,4 -4,4z" class="st0"/>
 </g>
</svg>