<?xml version="1.0" encoding="utf-8"?>
<!-- Generator: Adobe Illustrator 23.0.3, SVG Export Plug-In . SVG Version: 6.00 Build 0)  -->
<svg version="1.1" id="Layer_1" xmlns="http://www.w3.org/2000/svg" xmlns:xlink="http://www.w3.org/1999/xlink" x="0px" y="0px"
	 viewBox="0 0 512 512" style="enable-background:new 0 0 512 512;" xml:space="preserve">
<g id="_x31_38_x2C__Attachment_x2C__Attach_x2C__Clip_x2C__Add">
	<path d="M338.8,29.7c-16.8-14.4-39-22.4-62.6-22.4c-25.8,0-50.4,9.7-67.4,26.7c-14.2,14.2-22.1,32.4-22.1,51.3c0,0,0,0,0,0
		l-0.3,289.3c0,13.3,5.1,25.8,14.5,35.2c9.4,9.4,21.9,14.6,35.1,14.6c13.3,0,25.8-5.1,35.2-14.5c9.4-9.4,14.6-21.9,14.6-35.1
		L286,85.4c0-2.7-1-5.2-2.9-7.1c-1.9-1.9-4.4-2.9-7.1-2.9c-2.7,0-5.2,1-7.1,2.9c-1.9,1.9-2.9,4.4-2.9,7.1l-0.3,289.3
		c0,7.9-3.1,15.4-8.7,21c-5.6,5.6-13.1,8.7-21,8.7c-7.9,0-15.4-3.1-21-8.7c-5.6-5.6-8.7-13.1-8.7-21l0.3-289.3c0,0,0,0,0,0
		c0-13.6,5.8-26.8,16.2-37.2c13.3-13.3,32.7-20.8,53.3-20.8c18.8,0,36.5,6.3,49.6,17.6c12.7,10.9,19.7,25.4,19.7,40.6l-0.1,102.1
		c0,0,0,0,0,0l0,0l-0.2,187.2c0,29.2-11.4,56.5-32.1,77.1c-20.6,20.6-48.1,31.9-77.2,31.9c-29.1,0-56.5-11.4-77.1-32.1
		s-32-48.1-31.9-77.2l0.3-226.9c0-2.7-1-5.2-2.9-7.1s-4.4-2.9-7.1-2.9c-2.7,0-5.2,1-7.1,2.9c-1.9,1.9-2.9,4.4-2.9,7.1l-0.3,226.9
		c0,34.5,13.4,66.9,37.7,91.4c24.4,24.4,56.8,37.9,91.3,37.9c34.5,0,66.9-13.4,91.4-37.7c24.4-24.4,37.9-56.8,37.9-91.3l0.2-187.2
		c0,0,0,0,0,0l0.1-102.1C365.5,64.3,356,44.5,338.8,29.7z"/>
</g>
</svg>
