<svg width="512" height="512" xmlns="http://www.w3.org/2000/svg">

 <g>
  <title>background</title>
  <rect fill="none" id="canvas_background" height="402" width="582" y="-1" x="-1"/>
 </g>
 <g>
  <title>Layer 1</title>
  <path fill="#ffffff" transform="rotate(179.38723754882812 256.99377441406244,256.0499877929687) " id="svg_1" d="m414.093789,327.3l-1.8,-2.1l-136,-156.5c-4.6,-5.3 -11.5,-8.6 -19.2,-8.6c-7.7,0 -14.6,3.4 -19.2,8.6l-135.9,156.2l-2.3,2.6c-1.7,2.5 -2.7,5.5 -2.7,8.7c0,8.7 7.4,15.8 16.6,15.8l0,0l286.8,0l0,0c9.2,0 16.6,-7.1 16.6,-15.8c0,-3.3 -1.1,-6.4 -2.9,-8.9z"/>
 </g>
</svg>