<?xml version="1.0" encoding="utf-8"?>
<!-- Generator: Adobe Illustrator 23.0.3, SVG Export Plug-In . SVG Version: 6.00 Build 0)  -->
<svg version="1.1" id="Layer_1" xmlns="http://www.w3.org/2000/svg" xmlns:xlink="http://www.w3.org/1999/xlink" x="0px" y="0px"
	 viewBox="0 0 96 120" style="enable-background:new 0 0 96 120;" xml:space="preserve">
<path d="M55,87.8c-1.7,0-3.2-1.1-3.8-2.7L30.7,23.4L10.1,85c-0.7,2.1-3,3.2-5.1,2.5c-2.1-0.7-3.2-3-2.5-5.1l24.3-73
	c0.5-1.6,2.1-2.7,3.8-2.7s3.3,1.1,3.8,2.7l24.3,73c0.7,2.1-0.4,4.4-2.5,5.1C55.8,87.7,55.4,87.8,55,87.8z"/>
<path d="M45.7,65.3h-28c-2.2,0-4-1.8-4-4s1.8-4,4-4h28c2.2,0,4,1.8,4,4S47.9,65.3,45.7,65.3z"/>
<path d="M89.7,89.3c-2.2,0-4-1.8-4-4V54.6c0-9.8-1.4-10.2-4.7-10.2c-2,0-3.8,0.8-6,2.8c-1.7,1.5-4.2,1.3-5.6-0.4
	c-1.5-1.7-1.3-4.2,0.4-5.6c2.3-2,6-4.8,11.3-4.8c12.7,0,12.7,11.9,12.7,18.2v30.7C93.7,87.5,91.9,89.3,89.7,89.3z"/>
<path d="M89.7,89.3H79.3c-10.8,0-17.1-6.2-17.1-16.9c0-9.1,8.5-21.8,27.4-21.8c2.2,0,4,1.8,4,4v30.7C93.7,87.5,91.9,89.3,89.7,89.3z
	 M85.7,58.8c-10.5,1.5-15.4,8.6-15.4,13.5c0,6.3,2.7,8.9,9.1,8.9h6.4L85.7,58.8L85.7,58.8z"/>
</svg>
