<svg width="23.999999999999996" height="23.999999999999996" xmlns="http://www.w3.org/2000/svg">

 <g>
  <title>background</title>
  <rect fill="none" id="canvas_background" height="402" width="582" y="-1" x="-1"/>
 </g>
 <g>
  <title>Layer 1</title>
  <path fill="#ffffff" id="svg_1" d="m11.03,8l3.94,0l1.06,-4.24a1,1 0 1 1 1.94,0.48l-0.94,3.76l2.97,0a1,1 0 0 1 0,2l-3.47,0l-1,4l2.47,0a1,1 0 1 1 0,2l-2.97,0l-1.06,4.25a1,1 0 1 1 -1.94,-0.49l0.94,-3.76l-3.94,0l-1.06,4.25a1,1 0 1 1 -1.94,-0.49l0.94,-3.76l-2.97,0a1,1 0 0 1 0,-2l3.47,0l1,-4l-2.47,0a1,1 0 0 1 0,-2l2.97,0l1.06,-4.24a1,1 0 1 1 1.94,0.48l-0.94,3.76zm-0.5,2l-1,4l3.94,0l1,-4l-3.94,0z" class="heroicon-ui"/>
 </g>
</svg>