<svg width="32" height="32" xmlns="http://www.w3.org/2000/svg">
 <title/>

 <g>
  <title>background</title>
  <rect fill="none" id="canvas_background" height="402" width="582" y="-1" x="-1"/>
 </g>
 <g>
  <title>Layer 1</title>
  <path fill="#ffffff" id="svg_1" d="m16,2.94228a13,13 0 1 0 13,13a13,13 0 0 0 -13,-13zm0,24a11,11 0 1 1 11,-11a11,11 0 0 1 -11,11z"/>
  <path fill="#ffffff" id="svg_2" d="m17.17,8.13a5,5 0 0 0 -6.17,4.87a1,1 0 0 0 2,0a3,3 0 1 1 3,3a1,1 0 0 0 -1,1l0,2a1,1 0 0 0 2,0l0,-1.1a5,5 0 0 0 2.91,-1.78a5.06,5.06 0 0 0 1,-4.29a5,5 0 0 0 -3.74,-3.7z"/>
  <path fill="#ffffff" id="svg_3" d="m16.71,22.29a1,1 0 0 0 -1.71,0.71a1,1 0 0 0 0.29,0.71a1.15,1.15 0 0 0 0.33,0.21a1,1 0 0 0 1.3,-1.3a1,1 0 0 0 -0.21,-0.33z"/>
 </g>
</svg>