<svg width="128" height="128" xmlns="http://www.w3.org/2000/svg">

 <g>
  <title>background</title>
  <rect fill="none" id="canvas_background" height="402" width="582" y="-1" x="-1"/>
 </g>
 <g>
  <title>Layer 1</title>
  <polygon fill="#ffffff" id="svg_2" points="99,60 68,60 68,29 60,29 60,68 99,68  "/>
  <path fill="#ffffff" id="svg_4" d="m64,127c34.8,0 63,-28.2 63,-63s-28.2,-63 -63,-63c-34.8,0 -63,28.2 -63,63s28.2,63 63,63zm0,-118c30.3,0 55,24.7 55,55s-24.7,55 -55,55c-30.3,0 -55,-24.7 -55,-55s24.7,-55 55,-55z"/>
 </g>
</svg>