<?xml version="1.0" encoding="utf-8"?>
<!-- Generator: Adobe Illustrator 23.0.3, SVG Export Plug-In . SVG Version: 6.00 Build 0)  -->
<svg version="1.1" id="Layer_1" xmlns="http://www.w3.org/2000/svg" xmlns:xlink="http://www.w3.org/1999/xlink" x="0px" y="0px"
	 viewBox="0 0 100.2 100.2" style="enable-background:new 0 0 100.2 100.2;" xml:space="preserve">
<style type="text/css">
	.st0{fill:#FFFFFF;}
</style>
<path class="st0" d="M84.5,34.5C84.5,34.5,84.5,34.5,84.5,34.5c0-0.1,0-0.1,0-0.2c0,0,0-0.1,0-0.1c0,0,0-0.1,0-0.1
	c0-0.1,0-0.1-0.1-0.2c0,0,0,0,0,0c-6.2-13.6-19-21.8-34.4-21.8c-20.9,0-37.9,17-37.9,37.9s17,37.9,37.9,37.9c7.9,0,15.6-2.4,22-7
	c0.7-0.5,0.8-1.4,0.3-2.1c-0.5-0.7-1.4-0.8-2.1-0.3c-5.9,4.2-12.9,6.5-20.3,6.5c-19.3,0-34.9-15.7-34.9-34.9
	c0-19.3,15.7-34.9,34.9-34.9c14.3,0,25.7,7.2,31.5,19.8l0,20.2c0,4.5-3.6,8.1-8.1,8.1c-4.4,0-8.3-4-8.5-8.4c0.5-1.5,0.7-3.1,0.7-4.7
	c0-9-7.3-16.4-16.4-16.4S32.9,41,32.9,50s7.3,16.4,16.4,16.4c5.7,0,10.7-2.9,13.6-7.3c1.8,4.1,5.9,7.1,10.5,7.1
	c6.1,0,11.1-5,11.1-11.1L84.5,34.5z M49.3,63.4c-7.4,0-13.4-6-13.4-13.4c0-7.4,6-13.4,13.4-13.4s13.4,6,13.4,13.4
	c0,1.3-0.2,2.6-0.6,3.8C62,53.9,62,54.1,62,54.2C60.2,59.5,55.2,63.4,49.3,63.4z"/>
</svg>
