<svg width="48.00000000000001" height="48.00000000000001" xmlns="http://www.w3.org/2000/svg">

 <g>
  <title>background</title>
  <rect fill="none" id="canvas_background" height="402" width="582" y="-1" x="-1"/>
 </g>
 <g>
  <title>Layer 1</title>
  <path id="svg_1" fill="none" stroke="#ffffff" stroke-miterlimit="10" d="m34.596,27.556c1.68,-1.67 2.729,-4 2.729,-6.56c0,-5.11 -4.149,-9.25 -9.25,-9.25l-8.84,0c-2.55,0 -4.86,1.03 -6.54,2.71c-1.67,1.67 -2.71,3.979 -2.71,6.54c0,5.11 4.15,9.25 9.25,9.25l7.66,0"/>
  <path id="svg_2" fill="none" stroke="#ffffff" stroke-miterlimit="10" d="m26.799,30.241c0,0 4.187,0.326 3.643,3.302c-0.536,2.978 0.373,-1.604 4.354,-6.205"/>
  <path id="svg_3" fill="none" stroke="#ffffff" stroke-miterlimit="10" d="m18.822,21.166c0,1.059 -0.858,1.916 -1.917,1.916l0,0c-1.059,0 -1.917,-0.857 -1.917,-1.916l0,0c0,-1.059 0.858,-1.917 1.917,-1.917l0,0c1.059,0 1.917,0.858 1.917,1.917l0,0z"/>
  <path id="svg_4" fill="none" stroke="#ffffff" stroke-miterlimit="10" d="m25.072,21.083c0,1.059 -0.858,1.916 -1.917,1.916l0,0c-1.059,0 -1.917,-0.857 -1.917,-1.916l0,0c0,-1.059 0.858,-1.917 1.917,-1.917l0,0c1.059,0 1.917,0.858 1.917,1.917l0,0z"/>
  <path id="svg_5" fill="none" stroke="#ffffff" stroke-miterlimit="10" d="m31.404,21.166c0,1.059 -0.857,1.916 -1.916,1.916l0,0c-1.059,0 -1.916,-0.857 -1.916,-1.916l0,0c0,-1.059 0.857,-1.917 1.916,-1.917l0,0c1.059,0 1.916,0.858 1.916,1.917l0,0z"/>
 </g>
</svg>